<svg xmlns="http://www.w3.org/2000/svg" width="219" height="183" fill="none"><path fill="#fff" d="M184.237 179.211H35.07V23.149c.008-5.1 2.145-9.99 5.943-13.597 3.797-3.607 8.945-5.637 14.316-5.645h.436c5.37.008 10.519 2.038 14.316 5.645 3.797 3.607 5.934 8.496 5.943 13.597v14.594h67.321V23.149c.008-5.1 2.145-9.99 5.943-13.597 3.797-3.607 8.945-5.637 14.316-5.645h.436c5.371.008 10.519 2.038 14.316 5.645 3.798 3.607 5.935 8.496 5.943 13.597V179.18l-.062.03ZM163.978.03h-.437c-6.456.007-12.646 2.445-17.214 6.778-4.568 4.333-7.142 10.209-7.158 16.34v10.687H79.951V23.15c0-6.14-2.568-12.028-7.139-16.369C68.242 2.44 62.042 0 55.578 0h-.436c-6.44.04-12.603 2.494-17.145 6.83-4.542 4.337-7.095 10.202-7.103 16.319V183H188.35V23.149c0-6.14-2.568-12.028-7.139-16.369C176.641 2.44 170.442 0 163.978 0v.03Z"/><path fill="#fff" d="M44.794 153.398h31.604v13.291H44.794v-13.291Zm-4.114 17.199h39.832v-21.136H40.68v21.136ZM143.283 153.398h31.603v13.291h-31.603v-13.291Zm-4.114 17.199H179v-21.136h-39.831v21.136ZM62.31 37.95H48.565V21.876c.118-1.655.893-3.206 2.169-4.34a7.09 7.09 0 0 1 4.704-1.762 7.09 7.09 0 0 1 4.704 1.763c1.276 1.133 2.05 2.684 2.168 4.339V37.95Zm4.114-16.074c-.347-2.515-1.645-4.823-3.652-6.496-2.007-1.672-4.586-2.594-7.256-2.594s-5.25.922-7.256 2.594c-2.007 1.673-3.305 3.981-3.653 6.496v19.981h21.817V21.876ZM170.554 37.95h-13.745V21.876c.118-1.655.893-3.206 2.169-4.34a7.09 7.09 0 0 1 4.704-1.762c1.746 0 3.428.63 4.704 1.763 1.276 1.133 2.051 2.684 2.168 4.339V37.95Zm4.114-16.074c-.347-2.515-1.645-4.823-3.652-6.496-2.007-1.672-4.586-2.594-7.256-2.594s-5.249.922-7.256 2.594c-2.007 1.673-3.306 3.981-3.653 6.496v19.981h21.817V21.876ZM62.31 84.87H48.565V68.794c.118-1.655.893-3.206 2.169-4.339a7.09 7.09 0 0 1 4.704-1.763 7.09 7.09 0 0 1 4.704 1.763c1.276 1.133 2.05 2.684 2.168 4.34v16.073Zm4.114-16.075c-.347-2.514-1.645-4.823-3.652-6.495-2.007-1.672-4.586-2.595-7.256-2.595s-5.25.922-7.256 2.595c-2.007 1.672-3.305 3.981-3.653 6.495v19.982h21.817V68.795ZM98.402 84.869H84.626V68.795c0-1.735.725-3.4 2.017-4.626 1.292-1.227 3.044-1.916 4.87-1.916 1.828 0 3.58.69 4.871 1.916 1.292 1.227 2.018 2.89 2.018 4.626v16.074Zm4.114-16.074c0-2.771-1.159-5.43-3.223-7.389-2.063-1.96-4.861-3.06-7.78-3.06-2.917 0-5.716 1.1-7.779 3.06-2.063 1.96-3.222 4.618-3.222 7.389v19.981h22.004V68.795ZM134.494 84.869h-13.776V68.795c0-1.735.725-3.4 2.017-4.626 1.292-1.227 3.044-1.916 4.871-1.916 1.826 0 3.578.69 4.87 1.916 1.292 1.227 2.018 2.89 2.018 4.626v16.074Zm4.114-16.074c0-2.771-1.16-5.43-3.223-7.389-2.063-1.96-4.862-3.06-7.779-3.06-2.918 0-5.717 1.1-7.78 3.06-2.063 1.96-3.222 4.618-3.222 7.389v19.981h22.004V68.795ZM170.554 84.87h-13.745V68.794c.118-1.655.893-3.206 2.169-4.339a7.09 7.09 0 0 1 4.704-1.763c1.746 0 3.428.63 4.704 1.763 1.276 1.133 2.051 2.684 2.168 4.34v16.073Zm4.114-16.075c-.347-2.514-1.645-4.823-3.652-6.495-2.007-1.672-4.586-2.595-7.256-2.595s-5.249.922-7.256 2.595c-2.007 1.672-3.306 3.981-3.653 6.495v19.982h21.817V68.795ZM48.565 108.995c.118-1.655.893-3.206 2.169-4.339a7.09 7.09 0 0 1 4.704-1.763 7.09 7.09 0 0 1 4.703 1.763c1.276 1.133 2.052 2.684 2.169 4.339v16.044H48.565v-16.044Zm-4.145 19.892h21.817v-19.892c-.347-2.515-1.646-4.823-3.653-6.496-2.007-1.672-4.586-2.594-7.256-2.594s-5.248.922-7.256 2.594c-2.007 1.673-3.305 3.981-3.652 6.496v19.952-.06ZM84.626 108.995c0-1.735.725-3.399 2.017-4.626 1.292-1.227 3.044-1.916 4.87-1.916 1.828 0 3.58.689 4.871 1.916 1.292 1.227 2.018 2.891 2.018 4.626v16.044H84.626v-16.044Zm-4.114 19.952h22.004v-19.952c0-2.771-1.159-5.429-3.223-7.389-2.063-1.96-4.861-3.06-7.78-3.06-2.917 0-5.716 1.1-7.779 3.06-2.063 1.96-3.222 4.618-3.222 7.389v19.952ZM120.718 108.995c0-1.735.725-3.399 2.017-4.626 1.292-1.227 3.044-1.916 4.871-1.916 1.826 0 3.578.689 4.87 1.916 1.292 1.227 2.018 2.891 2.018 4.626v16.044h-13.776v-16.044Zm-4.114 19.952h22.004v-19.952c0-2.771-1.16-5.429-3.223-7.389-2.063-1.96-4.862-3.06-7.779-3.06-2.918 0-5.717 1.1-7.78 3.06-2.063 1.96-3.222 4.618-3.222 7.389v19.952ZM156.809 108.995c.118-1.655.893-3.206 2.169-4.339a7.09 7.09 0 0 1 4.704-1.763c1.746 0 3.428.63 4.704 1.763 1.276 1.133 2.051 2.684 2.168 4.339v16.044h-13.745v-16.044Zm-4.114 19.952h21.817v-19.952c-.347-2.515-1.645-4.823-3.652-6.496-2.007-1.672-4.586-2.594-7.256-2.594s-5.249.922-7.256 2.594c-2.007 1.673-3.305 3.981-3.653 6.496v19.952ZM90.33 175.304h4.114v-23.297h13.838v23.297h4.114v-23.297h13.838v23.297h4.114v-27.205H90.33v27.205ZM39.122 52.04h141.001v-3.907H39.122v3.907ZM135.086 22.468c.039-1.31.175-2.616.405-3.907H83.753c.231 1.291.366 2.597.406 3.907h50.927ZM39.122 143.215h141.001v-3.908H39.122v3.908Z"/></svg>