<svg xmlns="http://www.w3.org/2000/svg" width="219" height="183" fill="none"><path fill="#fff" d="M13.254 65.198c1.729 2.132 4.034 3.32 6.432 3.318 1.233-.013 2.451-.346 3.581-.98 1.13-.633 2.149-1.554 2.994-2.706l4.107-5.419a7.24 7.24 0 0 0 4.636-.18c1.509-.567 2.878-1.622 3.978-3.063l8.844-11.648 6.202-8.035-4.967-.295-12.635 16.66c-.738.943-1.67 1.596-2.688 1.883a4.345 4.345 0 0 1-3.055-.26 1.527 1.527 0 0 0-1.082-.11 1.845 1.845 0 0 0-.956.662l-4.882 6.487a5.605 5.605 0 0 1-1.776 1.536c-.666.356-1.38.54-2.1.54-.721 0-1.435-.184-2.1-.54a5.605 5.605 0 0 1-1.777-1.536 6.53 6.53 0 0 1-1.177-2.174 2.385 2.385 0 0 0-.703-1.076 1.61 1.61 0 0 0-1.049-.399h-.46c-.952 0-1.892-.292-2.74-.85-.849-.557-1.582-1.365-2.14-2.356a6.581 6.581 0 0 1-.632-1.327c-1.528-.417-2.987-1.178-4.307-2.249.173 2.984 1.166 5.792 2.801 7.925 1.636 2.133 3.807 3.452 6.129 3.723.43.897.94 1.726 1.522 2.47Z"/><path fill="#fff" d="M73.64.068h-1.866a24.062 24.062 0 0 0-3.618 0c-7.322.774-29.777 5.713-30.725 5.897-.947.406-5.053 2.876-31.988 19.02-1.988 1.288-3.58 3.399-4.52 5.992-.939 2.592-1.17 5.516-.655 8.298.514 2.781 1.744 5.26 3.49 7.034 1.747 1.774 3.909 2.741 6.136 2.745 1.516.004 3.011-.45 4.365-1.327L39.9 31.362l28.169.331 10.854 4.976-20.1 3.686c-2.483.421-4.75 2.034-6.343 4.514-1.594 2.48-2.397 5.642-2.248 8.85.149 3.21 1.24 6.227 3.052 8.446 1.812 2.218 4.212 3.473 6.716 3.512h1.177l36.813-6.376a9.594 9.594 0 0 1 3.962.258l12.204 3.428a32.51 32.51 0 0 0 14.817.663l3.589-.663v-4.903l-4.164.774a29.728 29.728 0 0 1-13.295-.552l-12.175-3.428a12.52 12.52 0 0 0-5.254-.332l-36.841 6.413a4.811 4.811 0 0 1-2.373-.284c-.77-.294-1.485-.78-2.107-1.431a7.724 7.724 0 0 1-1.517-2.36 9.503 9.503 0 0 1-.694-2.928 9.863 9.863 0 0 1 .193-3.025 8.703 8.703 0 0 1 1.084-2.697 6.71 6.71 0 0 1 1.81-1.954 5.14 5.14 0 0 1 2.254-.912l27.624-5.197c.416-.072.801-.322 1.093-.71.292-.388.473-.891.515-1.428a3 3 0 0 0-.276-1.545c-.224-.46-.562-.812-.959-.998l-18.32-8.588a1.908 1.908 0 0 0-.632 0l-28.944-.332a1.726 1.726 0 0 0-.861.258L12.678 43.45c-1.463.889-3.14 1-4.668.31-1.527-.69-2.78-2.126-3.487-3.995-.702-1.831-.816-3.944-.317-5.881.5-1.938 1.573-3.546 2.988-4.477l31.213-18.65c2.44-.517 23.373-5.087 30.179-5.788a17.91 17.91 0 0 1 3.13 0h1.952c6.748.185 30.237 1.438 48.643 9.657h.316l10.337 2.286v-4.94l-9.591-2.1C104.997 1.727 82.542.289 73.727.03l-.087.037ZM214.457 67.188h-53.754V7.513h53.754v59.675Zm1.895-64.54h-57.429c-.503 0-.985.256-1.34.712-.356.457-.555 1.075-.555 1.72v64.541c0 .645.199 1.264.555 1.72.355.457.837.713 1.34.713h57.429c.501-.01.978-.27 1.332-.723.354-.454.556-1.068.563-1.71V5.081c-.007-.643-.209-1.256-.563-1.71-.354-.454-.831-.714-1.332-.723ZM138.564 6.223c-.495 0-.969.253-1.32.702-.35.45-.546 1.059-.546 1.694l-.287 57.39c-.006.316.04.63.134.921.094.292.234.555.411.774.169.233.374.418.601.545.227.127.472.192.72.193h14.846v-4.866h-12.922l.258-52.524h12.664V6.334h-14.53l-.029-.11ZM13.225 177.471c2.224-3.664 5.112-6.574 8.413-8.477.376-.219.694-.572.918-1.016.224-.444.344-.962.346-1.491v-7.372h84.794v7.372c-.001.525.115 1.04.333 1.484.219.444.532.798.902 1.023 3.309 1.884 6.201 4.798 8.413 8.477H13.224Zm98.778-12.679v-8.404c-.007-.731-.236-1.428-.639-1.945-.402-.516-.945-.81-1.514-.82H20.834c-.569.01-1.112.304-1.514.82-.403.517-.632 1.214-.64 1.945v8.404c-3.072 2.064-10.308 7.777-10.308 15.444.008.73.237 1.427.64 1.944.401.516.945.81 1.514.82h109.69c.584-.029 1.136-.349 1.538-.893.402-.544.623-1.269.615-2.019 0-7.372-7.207-13.232-10.28-15.296h-.086ZM65.055 78.91h.488c1.691.012 3.332.741 4.667 2.074 1.334 1.334 2.288 3.196 2.713 5.298H57.675c.42-2.105 1.373-3.97 2.708-5.305 1.336-1.335 2.98-2.062 4.672-2.067Zm10.308 12.753c.584-.029 1.136-.35 1.539-.893.402-.544.623-1.269.615-2.019 0-2.018-.31-4.017-.911-5.882-.602-1.865-1.484-3.559-2.596-4.986-1.112-1.427-2.432-2.56-3.885-3.332-1.453-.773-3.01-1.17-4.582-1.17h-.488c-1.581.005-3.146.41-4.605 1.194-1.458.783-2.782 1.929-3.894 3.37-1.113 1.443-1.993 3.153-2.59 5.032a19.291 19.291 0 0 0-.885 5.922c0 .733.227 1.436.63 1.954.404.519.952.81 1.523.81h20.13ZM64.997 100.215h.431c18.205 0 39.397 11.389 40.545 43.236H24.596c1.177-31.589 22.254-43.089 40.401-43.236Zm-44.65 46c-.005.364.048.726.155 1.064.107.337.266.644.466.902.201.257.44.461.703.598.263.137.545.205.829.2h85.77c.572 0 1.119-.291 1.523-.809.404-.519.631-1.222.631-1.955 0-38.039-24.207-51.603-44.91-51.603h-.46c-22.253.184-44.708 16.218-44.708 51.603Z"/><path fill="#fff" d="M29.564 140.833h.401c.503.003.991-.22 1.38-.631.388-.411.652-.983.745-1.617.971-5.716 3.003-11.046 5.923-15.538 2.92-4.492 6.64-8.013 10.847-10.264.26-.15.492-.366.686-.634.193-.268.342-.584.438-.928a3.445 3.445 0 0 0-.09-2.124c-.25-.659-.689-1.167-1.225-1.415a1.745 1.745 0 0 0-1.647.088c-4.84 2.59-9.113 6.656-12.45 11.846-3.338 5.19-5.639 11.347-6.703 17.937-.058.356-.06.723-.006 1.081.054.357.163.697.32.999.159.302.362.561.6.761.236.199.502.336.78.402v.037ZM103.619 164.018H26.864c-.57 0-1.119.291-1.523.809-.403.519-.63 1.222-.63 1.955 0 .733.227 1.436.63 1.955.404.518.952.81 1.523.81h76.755c.571 0 1.118-.292 1.522-.81.404-.519.631-1.222.631-1.955 0-.733-.227-1.436-.631-1.955-.404-.518-.951-.809-1.522-.809Z"/></svg>