<svg xmlns="http://www.w3.org/2000/svg" width="254" height="194" fill="none"><path fill="#fff" d="M46.614 8.795a20.94 20.94 0 0 1 8.952-2.614c.841-.099 1.69.084 2.428.522.228.845-1.934 4.947-8.46 8.366a20.535 20.535 0 0 1-8.913 2.574 3.867 3.867 0 0 1-2.428-.523c-.228-.845 1.897-4.907 8.421-8.325Zm-5.993 14.92A25.606 25.606 0 0 0 52 20.499c3.392-1.696 6.425-4.104 8.914-7.078 3.528-4.464 2.845-7.762 2.086-9.33A7.797 7.797 0 0 0 59.788.85a7.21 7.21 0 0 0-4.373-.783 26.148 26.148 0 0 0-11.38 3.218c-3.406 1.71-6.45 4.131-8.953 7.118a8.443 8.443 0 0 0-2.383 4.31c-.36 1.662-.23 3.4.373 4.98a7.796 7.796 0 0 0 3.213 3.24 7.21 7.21 0 0 0 4.373.783h-.038ZM55.111 26.773c12.344-6.536 25.957-9.924 39.754-9.894 16.202-.056 32.114 4.55 46.042 13.324 13.928 8.776 25.35 21.392 33.05 36.506L12.891 151.167c-9.44-22.501-10.317-47.998-2.45-71.169 7.866-23.17 23.87-42.225 44.67-53.185v-.04ZM10.236 159.21l171.421-89.807-1.29-2.695c-11.549-23.5-31.32-41.271-55.078-49.504-23.757-8.232-49.61-6.272-72.021 5.461S13.672 54.972 5.394 79.976c-8.277 25.004-6.988 52.451 3.59 76.46l1.252 2.695v.08Z"/><path fill="#fff" d="M18.77 144.571c.34.015.677-.054.987-.201.37-.132.709-.345.996-.624.288-.279.518-.618.675-.997a3.127 3.127 0 0 0-.002-2.401c-5.064-15.332-5.942-31.869-2.533-47.707 3.409-15.838 10.967-30.333 21.803-41.818.34-.263.62-.602.822-.992a3.18 3.18 0 0 0 .142-2.572 3.028 3.028 0 0 0-.706-1.087 2.812 2.812 0 0 0-1.077-.663 2.691 2.691 0 0 0-1.24-.113c-.417.06-.815.218-1.168.46-.352.243-.649.566-.87.945-11.585 12.296-19.655 27.815-23.28 44.766-3.624 16.951-2.655 34.642 2.796 51.034.201.576.563 1.073 1.038 1.425.474.352 1.039.542 1.618.545ZM211.928 189.576H8.377a2.61 2.61 0 0 1-1.67-.927 2.915 2.915 0 0 1-.668-1.868c0-.689.237-1.353.668-1.868a2.61 2.61 0 0 1 1.67-.927h203.551a2.61 2.61 0 0 1 1.67.927c.431.515.669 1.179.669 1.868 0 .688-.238 1.353-.669 1.868a2.61 2.61 0 0 1-1.67.927Zm0-10.014H8.377c-1.718.136-3.324.955-4.496 2.294-1.172 1.339-1.823 3.098-1.823 4.925s.65 3.586 1.823 4.924c1.172 1.339 2.778 2.159 4.496 2.295h203.551c1.718-.136 3.324-.956 4.496-2.295 1.172-1.338 1.823-3.097 1.823-4.924 0-1.827-.651-3.586-1.823-4.925s-2.778-2.158-4.496-2.294ZM193.606 132.305l-3.793 31.933c-.229 1.738-1.042 3.33-2.289 4.483-1.248 1.152-2.846 1.789-4.501 1.791h-18.436c-1.655-.002-3.253-.639-4.501-1.791-1.248-1.153-2.06-2.745-2.289-4.483l-3.793-31.933h39.602Zm-40.133 32.496c.356 2.808 1.659 5.385 3.667 7.255 2.007 1.87 4.585 2.907 7.257 2.92h18.436c2.675-.005 5.257-1.039 7.266-2.91 2.009-1.872 3.31-4.453 3.659-7.265l4.59-36.92h-49.314l4.59 36.92h-.151ZM199.106 163.152a3.654 3.654 0 0 1-.872-.281l-.303 2.654c0 .644-.266 1.207-.38 1.81l.835.201c.48.04.961.04 1.441 0 5.88 0 11.38-6.556 12.708-14.921.892-5.107-.114-10.382-2.807-14.72a9.51 9.51 0 0 0-2.653-2.658 8.959 8.959 0 0 0-3.416-1.364 8.853 8.853 0 0 0-1.783 0l-.569 4.545a4.17 4.17 0 0 1 .986 0h.759c1.347.31 2.529 1.16 3.3 2.373 2.027 3.393 2.759 7.477 2.048 11.422-.948 6.435-5.386 11.784-9.294 11.1v-.161ZM174.146 86.376a2.71 2.71 0 0 0-2.199-.08 2.828 2.828 0 0 0-.949.634 3.022 3.022 0 0 0-.645.974c-4.514 10.819-2.2 15.806 0 20.109a14.093 14.093 0 0 1 1.814 6.938 14.09 14.09 0 0 1-1.814 6.937c-.156.369-.24.767-.247 1.171-.008.404.061.806.203 1.181.141.375.352.716.621 1.003a2.873 2.873 0 0 0 2.04.909 2.731 2.731 0 0 0 1.594-.496 2.983 2.983 0 0 0 1.062-1.354 20.207 20.207 0 0 0 2.194-9.468 20.158 20.158 0 0 0-2.46-9.395c-1.783-3.821-3.186-6.877.228-15.082a3.18 3.18 0 0 0 .074-2.331 3.048 3.048 0 0 0-.597-1.007 2.86 2.86 0 0 0-.919-.684v.04ZM162.046 86.376a2.699 2.699 0 0 0-2.199-.079 2.832 2.832 0 0 0-.95.633 3.022 3.022 0 0 0-.645.974c-4.514 10.819-2.2 15.806 0 20.109a14.093 14.093 0 0 1 1.814 6.938 14.09 14.09 0 0 1-1.814 6.937 3.189 3.189 0 0 0-.044 2.352c.141.375.353.716.621 1.003a2.87 2.87 0 0 0 2.041.909 2.689 2.689 0 0 0 1.628-.494 2.95 2.95 0 0 0 1.065-1.397 20.104 20.104 0 0 0 2.224-9.463 20.062 20.062 0 0 0-2.452-9.399c-1.783-3.821-3.186-6.877.228-15.082.158-.364.245-.757.258-1.158.013-.4-.049-.799-.184-1.173a3.048 3.048 0 0 0-.597-1.007 2.86 2.86 0 0 0-.919-.684l-.075.08ZM182.53 108.174a14.225 14.225 0 0 1 1.795 6.938c0 2.441-.62 4.838-1.795 6.937a3.154 3.154 0 0 0-.295 1.184 3.2 3.2 0 0 0 .174 1.21c.136.387.344.74.614 1.038.269.297.593.533.951.693.359.16.744.24 1.133.236a2.716 2.716 0 0 0 1.128-.262c.355-.168.674-.411.937-.715s.465-.661.592-1.051a20.061 20.061 0 0 0 2.211-9.468 20.032 20.032 0 0 0-2.476-9.394c-1.783-3.821-3.187-6.878.265-15.082a3.228 3.228 0 0 0 .045-2.335 2.99 2.99 0 0 0-1.524-1.687 2.71 2.71 0 0 0-2.199-.079 2.832 2.832 0 0 0-.95.634 3.02 3.02 0 0 0-.644.973c-4.477 10.819-2.163 15.806 0 20.109l.038.121ZM107.914 171.438v3.7h4.211v-3.298l30.347-8.325a3.02 3.02 0 0 0 1.685-1.308 3.326 3.326 0 0 0 .471-2.156 3.244 3.244 0 0 0-.972-1.96 2.903 2.903 0 0 0-1.943-.81H24.12c-.716.023-1.4.317-1.928.829a3.244 3.244 0 0 0-.955 1.96 3.327 3.327 0 0 0 .48 2.146 3.014 3.014 0 0 0 1.682 1.299l30.043 8.244v3.379h4.21v-4.022a3.761 3.761 0 0 0-.705-2.174 3.414 3.414 0 0 0-1.798-1.285l-21.584-6.033h98.627l-21.66 5.912a3.794 3.794 0 0 0-2.065 1.492 4.184 4.184 0 0 0-.742 2.53l.189-.12ZM102.338 149.719l7.17 3.137h10.962l-16.539-7.239c-13.54-5.811-28.68-5.811-42.22 0l-17.26 7.4h11.153l7.587-3.298c12.532-5.367 26.54-5.367 39.071 0h.076Z"/></svg>